<svg width="720" height="720" xmlns="http://www.w3.org/2000/svg" xmlns:xlink="http://www.w3.org/1999/xlink" overflow="hidden"><defs><clipPath id="clip0"><rect x="0" y="0" width="720" height="720"/></clipPath><clipPath id="clip1"><rect x="40" y="104" width="640" height="512"/></clipPath><clipPath id="clip2"><rect x="40" y="104" width="640" height="512"/></clipPath><clipPath id="clip3"><rect x="40" y="104" width="640" height="512"/></clipPath></defs><g clip-path="url(#clip0)"><rect x="0" y="0" width="720" height="720" fill="#FFFFFF" fill-opacity="0"/><g clip-path="url(#clip1)"><g clip-path="url(#clip2)"><g clip-path="url(#clip3)"><path d="M674 380.8 664.001 366.92 664 289.7C664 277.82 651.5 270.21 640.88 275.59 630 280.965 621.38 289.09 614.5 298.59L548.75 207.67C530.6 182.71 501.8 168 471 168L152 168C103.37 168 64 207.4 64 256L64 342.38C49.5 354.1 40 371.9 40 392L40 424 48 424C83.38 424 112 395.38 112 360L112 256C112 239.12 122.5 224.88 137.38 219 136.5 223.1 136 227.5 136 232L136 536C136 544.875 143.126 552 152 552L215.1 552C223.975 552 231.1 544.875 231.1 536L231.101 424C240.476 433.375 251.351 440.5 263.101 445.88L263.101 472C263.101 480.875 270.353 488 279.101 488 287.976 488 294.201 480.875 294.201 472L294.201 454.75C303.326 455.75 307.081 457 326.201 454.625L326.201 472C326.201 480.875 333.451 488 342.201 488 351.076 488 358.201 480.875 358.201 472L358.201 445.88C371.8 440.5 382.6 433.2 392 424L391.999 536C391.999 544.875 399.124 552 407.099 552L471.099 552C479.849 552 487.099 544.875 487.099 536L487.099 360 518.199 392 518.199 433.55C518.199 446.17 521.951 458.5 528.949 469L570.199 531C580.8 544.1 595.5 552 611.4 552 633.9 552 653.28 536.12 657.65 514L679.4 405.4C681.1 396.8 679.1 387.9 674 380.8ZM417.3 271.4 394.42 294.15C372.5 315.8 342.9 328 312.1 328 281.3 328 251.5 315.8 229.6 294.1L206.8 271.4C191 255.8 204.4 232 228.9 232L395.1 232C419.6 232 433 255.8 417.3 271.4ZM616 456C607.125 456 600 448.875 600 440 600 431.125 607.125 424 616 424 624.875 424 632 431.125 632 440 632 448.875 624.9 456 616 456Z" fill="#FFFFFF"/></g></g></g></g></svg>