<svg width="720" height="720" xmlns="http://www.w3.org/2000/svg" xmlns:xlink="http://www.w3.org/1999/xlink" overflow="hidden"><defs><clipPath id="clip0"><rect x="0" y="0" width="720" height="720"/></clipPath><clipPath id="clip1"><rect x="72" y="72" width="576" height="576"/></clipPath><clipPath id="clip2"><rect x="72" y="72" width="576" height="576"/></clipPath><clipPath id="clip3"><rect x="72" y="72" width="576" height="576"/></clipPath><clipPath id="clip4"><rect x="72" y="72" width="576" height="576"/></clipPath><clipPath id="clip5"><rect x="104" y="155" width="512" height="410"/></clipPath><clipPath id="clip6"><rect x="104" y="155" width="512" height="410"/></clipPath><clipPath id="clip7"><rect x="104" y="155" width="512" height="410"/></clipPath></defs><g clip-path="url(#clip0)"><rect x="0" y="0" width="720" height="720" fill="#FFFFFF" fill-opacity="0"/><path d="M0 120.002C-4.58328e-14 53.7269 53.7269 0 120.002 0L599.998 0C666.273-2.29164e-14 720 53.7269 720 120.002L720 599.998C720 666.273 666.273 720 599.998 720L120.002 720C53.7269 720 0 666.273 0 599.998Z" fill="#1A4D2E" fill-rule="evenodd"/><g clip-path="url(#clip1)"><g clip-path="url(#clip2)"><g clip-path="url(#clip3)"><g clip-path="url(#clip4)"><g clip-path="url(#clip5)"><g clip-path="url(#clip6)"><g clip-path="url(#clip7)"><path d="M611.2 376.64 603.201 365.536 603.2 303.76C603.2 294.256 593.2 288.168 584.704 292.472 576 296.772 569.104 303.272 563.6 310.872L511 238.136C496.48 218.168 473.44 206.4 448.8 206.4L193.6 206.4C154.696 206.4 123.2 237.92 123.2 276.8L123.2 345.904C111.6 355.28 104 369.52 104 385.6L104 411.2 110.4 411.2C138.704 411.2 161.6 388.304 161.6 360L161.6 276.8C161.6 263.296 170 251.904 181.904 247.2 181.2 250.48 180.8 254 180.8 257.6L180.8 500.8C180.8 507.9 186.501 513.6 193.6 513.6L244.08 513.6C251.18 513.6 256.88 507.9 256.88 500.8L256.881 411.2C264.381 418.7 273.081 424.4 282.481 428.704L282.481 449.6C282.481 456.7 288.282 462.4 295.281 462.4 302.381 462.4 307.361 456.7 307.361 449.6L307.361 435.8C314.661 436.6 317.665 437.6 332.961 435.7L332.961 449.6C332.961 456.7 338.761 462.4 345.761 462.4 352.861 462.4 358.561 456.7 358.561 449.6L358.561 428.704C369.44 424.4 378.08 418.56 385.6 411.2L385.599 500.8C385.599 507.9 391.299 513.6 397.679 513.6L448.879 513.6C455.879 513.6 461.679 507.9 461.679 500.8L461.679 360 486.559 385.6 486.559 418.84C486.559 428.936 489.561 438.8 495.159 447.2L528.159 496.8C536.64 507.28 548.4 513.6 561.12 513.6 579.12 513.6 594.624 500.896 598.12 483.2L615.52 396.32C616.88 389.44 615.28 382.32 611.2 376.64ZM405.84 289.12 387.536 307.32C370 324.64 346.32 334.4 321.68 334.4 297.04 334.4 273.2 324.64 255.68 307.28L237.44 289.12C224.8 276.64 235.52 257.6 255.12 257.6L388.08 257.6C407.68 257.6 418.4 276.64 405.84 289.12ZM564.8 436.8C557.7 436.8 552 431.1 552 424 552 416.9 557.7 411.2 564.8 411.2 571.9 411.2 577.6 416.9 577.6 424 577.6 431.1 571.92 436.8 564.8 436.8Z" fill="#FF9F29"/></g></g></g></g></g></g></g></g></svg>